<svg xmlns="http://www.w3.org/2000/svg">

    <symbol id="menu">
        <path d="M6 7h16a1 1 0 1 1 0 2H6z" ></path>
        <path d="M6 13h16a1 1 0 1 1 0 2H6z"></path>
        <path d="M6 19h16a1 1 0 1 1 0 2H6z"></path>
        <path d="M6 9a1 1 0 1 1 0 -2zM6 15a1 1 0 1 1 0 -2zM6 21a1 1 0 1 1 0 -2z"></path>
    </symbol>

    <symbol id="menu_add">
        <path d="M13.5 6a8.5 8.5 0 1 0 0 17 8.5 8.5 0 0 0 0-17zM4 14.5a9.5 9.5 0 1 1 19 0 9.5 9.5 0 0 1-19 0z"></path>
        <path d="M9 14h4v-4h1v4h4v1h-4v4h-1v-4H9v-1z"></path>
    </symbol>

    <symbol id="candle_heiken_ashi">
        <path d="M9 8v12h3V8H9zm-1-.502C8 7.223 8.215 7 8.498 7h4.004c.275 0 .498.22.498.498v13.004a.493.493 0 0 1-.498.498H8.498A.496.496 0 0 1 8 20.502V7.498z"></path><path d="M10 4h1v3.5h-1z"></path><path d="M17 6v6h3V6h-3zm-1-.5c0-.276.215-.5.498-.5h4.004c.275 0 .498.23.498.5v7c0 .276-.215.5-.498.5h-4.004a.503.503 0 0 1-.498-.5v-7z"></path>
        <path d="M18 2h1v3.5h-1z"></path>
    </symbol>

    <symbol id="candle_regular">
        <path d="M17 11v6h3v-6h-3zm-.5-1h4a.5.5 0 0 1 .5.5v7a.5.5 0 0 1-.5.5h-4a.5.5 0 0 1-.5-.5v-7a.5.5 0 0 1 .5-.5z"></path>
        <path d="M18 7h1v3.5h-1zm0 10.5h1V21h-1z"></path>
        <path d="M9 8v12h3V8H9zm-.5-1h4a.5.5 0 0 1 .5.5v13a.5.5 0 0 1-.5.5h-4a.5.5 0 0 1-.5-.5v-13a.5.5 0 0 1 .5-.5z"></path>
        <path d="M10 4h1v3.5h-1zm0 16.5h1V24h-1z"></path>
    </symbol>

    <symbol id="candle_bar">
        <path d="M10.5 7.5v15M7.5 20.5H10M13.5 11.5H11M19.5 6.5v15M16.5 9.5H19M22.5 16.5H20"></path>
    </symbol>

    <symbol id="candle_hollow">
        <path d="M17 11v6h3v-6h-3zm-.5-1h4a.5.5 0 0 1 .5.5v7a.5.5 0 0 1-.5.5h-4a.5.5 0 0 1-.5-.5v-7a.5.5 0 0 1 .5-.5z"></path>
        <path d="M18 7h1v3.5h-1zm0 10.5h1V21h-1z"></path>
        <path d="M9 8v11h3V8H9zm-.5-1h4a.5.5 0 0 1 .5.5v12a.5.5 0 0 1-.5.5h-4a.5.5 0 0 1-.5-.5v-12a.5.5 0 0 1 .5-.5z"></path>
        <path d="M10 4h1v5h-1zm0 14h1v5h-1zM8.5 9H10v1H8.5zM11 9h1.5v1H11zm-1 1h1v1h-1zm-1.5 1H10v1H8.5zm2.5 0h1.5v1H11zm-1 1h1v1h-1zm-1.5 1H10v1H8.5zm2.5 0h1.5v1H11zm-1 1h1v1h-1zm-1.5 1H10v1H8.5zm2.5 0h1.5v1H11zm-1 1h1v1h-1zm-1.5 1H10v1H8.5zm2.5 0h1.5v1H11z"></path>
    </symbol>

    <symbol id="indicator">
        <path d="M6 12l4.8-4.8a1 1 0 0 1 1.4 0l2.7 2.7a1 1 0 0 0 1.3.1L23 5"></path>
        <path fill-rule="evenodd" d="M19 12a1 1 0 0 0-1 1v4h-3v-1a1 1 0 0 0-1-1h-3a1 1 0 0 0-1 1v2H7a1 1 0 0 0-1 1v4h17V13a1 1 0 0 0-1-1h-3zm0 10h3v-9h-3v9zm-1 0v-4h-3v4h3zm-4-4.5V22h-3v-6h3v1.5zM10 22v-3H7v3h3z"></path>
    </symbol>

    <symbol id="indicator_template">
        <path fill-rule="evenodd" d="M8 7h3a1 1 0 0 1 1 1v3a1 1 0 0 1-1 1H8a1 1 0 0 1-1-1V8a1 1 0 0 1 1-1zM6 8c0-1.1.9-2 2-2h3a2 2 0 0 1 2 2v3a2 2 0 0 1-2 2H8a2 2 0 0 1-2-2V8zm11-1h3a1 1 0 0 1 1 1v3a1 1 0 0 1-1 1h-3a1 1 0 0 1-1-1V8a1 1 0 0 1 1-1zm-2 1c0-1.1.9-2 2-2h3a2 2 0 0 1 2 2v3a2 2 0 0 1-2 2h-3a2 2 0 0 1-2-2V8zm-4 8H8a1 1 0 0 0-1 1v3a1 1 0 0 0 1 1h3a1 1 0 0 0 1-1v-3a1 1 0 0 0-1-1zm-3-1a2 2 0 0 0-2 2v3c0 1.1.9 2 2 2h3a2 2 0 0 0 2-2v-3a2 2 0 0 0-2-2H8zm9 1h3a1 1 0 0 1 1 1v3a1 1 0 0 1-1 1h-3a1 1 0 0 1-1-1v-3a1 1 0 0 1 1-1zm-2 1c0-1.1.9-2 2-2h3a2 2 0 0 1 2 2v3a2 2 0 0 1-2 2h-3a2 2 0 0 1-2-2v-3z"></path>
    </symbol>

    <symbol id="alert_add">
        <path d="m19.54 4.5 3.96 4.32-.74.68-3.96-4.32.74-.68ZM7.46 4.5 3.5 8.82l.74.68L8.2 5.18l-.74-.68ZM19.74 10.33A7.5 7.5 0 0 1 21 14.5v.5h1v-.5a8.5 8.5 0 1 0-8.5 8.5h.5v-1h-.5a7.5 7.5 0 1 1 6.24-11.67Z"></path>
        <path d="M13 9v5h-3v1h4V9h-1ZM19 20v-4h1v4h4v1h-4v4h-1v-4h-4v-1h4Z"></path>
    </symbol>

    <symbol id="replay">
        <path fill="none" d="M13.5 20V9l-6 5.5 6 5.5zM21.5 20V9l-6 5.5 6 5.5z"></path>
    </symbol>

    <symbol id="undo">
        <path d="M8.707 13l2.647 2.646-.707.708L6.792 12.5l3.853-3.854.708.708L8.707 12H14.5a5.5 5.5 0 0 1 5.5 5.5V19h-1v-1.5a4.5 4.5 0 0 0-4.5-4.5H8.707z"></path>
    </symbol>

    <symbol id="redo">
        <path d="M18.293 13l-2.647 2.646.707.708 3.854-3.854-3.854-3.854-.707.708L18.293 12H12.5A5.5 5.5 0 0 0 7 17.5V19h1v-1.5a4.5 4.5 0 0 1 4.5-4.5h5.793z"></path>
    </symbol>

    <symbol id="menu_search">
        <path d="M3.5 8a4.5 4.5 0 1 1 9 0 4.5 4.5 0 0 1-9 0ZM8 2a6 6 0 1 0 3.65 10.76l3.58 3.58 1.06-1.06-3.57-3.57A6 6 0 0 0 8 2Z"></path>
    </symbol>

    <symbol id="cursor_cross">
        <g fill="currentColor" viewBox ="0 0 28 28" width='28px' height="28px">
            <path d="M18 15h8v-1h-8z"></path>
            <path d="M14 18v8h1v-8zM14 3v8h1v-8zM3 15h8v-1h-8z"></path>
        </g>
    </symbol>

    <symbol id="cursor_dot">
        <circle fill="currentColor" cx="14" cy="14" r="3"></circle>
    </symbol>

    <symbol id="cursor_arrow">
        <g fill="currentColor">
            <path d="M11.682 16.09l3.504 6.068 1.732-1-3.497-6.057 3.595-2.1L8 7.74v10.512l3.682-2.163zm-.362 1.372L7 20V6l12 7-4.216 2.462 3.5 6.062-3.464 2-3.5-6.062z"></path>
        </g>
    </symbol>

    <symbol id="cursor_erase">
        <g fill-rule="nonzero">
            <path d="M15.3 22l8.187-8.187c.394-.394.395-1.028.004-1.418l-4.243-4.243c-.394-.394-1.019-.395-1.407-.006l-11.325 11.325c-.383.383-.383 1.018.007 1.407l1.121 1.121h7.656zm-9.484-.414c-.781-.781-.779-2.049-.007-2.821l11.325-11.325c.777-.777 2.035-.78 2.821.006l4.243 4.243c.781.781.78 2.048-.004 2.832l-8.48 8.48h-8.484l-1.414-1.414z"></path>
            <path d="M13.011 22.999h7.999v-1h-7.999zM13.501 11.294l6.717 6.717.707-.707-6.717-6.717z"></path>
        </g>
    </symbol>

    <symbol id="fib_retrace">
        <g fill-rule="nonzero">
        <path d="M3 5h22v-1h-22z"></path>
        <path d="M3 17h22v-1h-22z"></path>
        <path d="M3 11h19.5v-1h-19.5z"></path>
        <path d="M5.5 23h19.5v-1h-19.5z"></path>
        <path d="M3.5 24c.828 0 1.5-.672 1.5-1.5s-.672-1.5-1.5-1.5-1.5.672-1.5 1.5.672 1.5 1.5 1.5zm0 1c-1.381 0-2.5-1.119-2.5-2.5s1.119-2.5 2.5-2.5 2.5 1.119 2.5 2.5-1.119 2.5-2.5 2.5zM24.5 12c.828 0 1.5-.672 1.5-1.5s-.672-1.5-1.5-1.5-1.5.672-1.5 1.5.672 1.5 1.5 1.5zm0 1c-1.381 0-2.5-1.119-2.5-2.5s1.119-2.5 2.5-2.5 2.5 1.119 2.5 2.5-1.119 2.5-2.5 2.5z"></path>
        </g>
    </symbol>

    <symbol id="fib_extend">
        <g fill-rule="nonzero">
            <path d="M4 25h22v-1h-22z" id="Line"></path>
            <path d="M4 21h22v-1h-22z"></path>
            <path d="M6.5 17h19.5v-1h-19.5z"></path>
            <path d="M5 14.5v-3h-1v3zM6.617 9.275l10.158-3.628-.336-.942-10.158 3.628z"></path>
            <path d="M18.5 6c.828 0 1.5-.672 1.5-1.5s-.672-1.5-1.5-1.5-1.5.672-1.5 1.5.672 1.5 1.5 1.5zm0 1c-1.381 0-2.5-1.119-2.5-2.5s1.119-2.5 2.5-2.5 2.5 1.119 2.5 2.5-1.119 2.5-2.5 2.5zM4.5 11c.828 0 1.5-.672 1.5-1.5s-.672-1.5-1.5-1.5-1.5.672-1.5 1.5.672 1.5 1.5 1.5zm0 1c-1.381 0-2.5-1.119-2.5-2.5s1.119-2.5 2.5-2.5 2.5 1.119 2.5 2.5-1.119 2.5-2.5 2.5zM4.5 18c.828 0 1.5-.672 1.5-1.5s-.672-1.5-1.5-1.5-1.5.672-1.5 1.5.672 1.5 1.5 1.5zm0 1c-1.381 0-2.5-1.119-2.5-2.5s1.119-2.5 2.5-2.5 2.5 1.119 2.5 2.5-1.119 2.5-2.5 2.5z"></path>
        </g>
    </symbol>

    <symbol id="trend_line">
        <g fill-rule="nonzero">
        <path d="M7.354 21.354l14-14-.707-.707-14 14z"></path>
        <path d="M22.5 7c.828 0 1.5-.672 1.5-1.5s-.672-1.5-1.5-1.5-1.5.672-1.5 1.5.672 1.5 1.5 1.5zm0 1c-1.381 0-2.5-1.119-2.5-2.5s1.119-2.5 2.5-2.5 2.5 1.119 2.5 2.5-1.119 2.5-2.5 2.5zM5.5 24c.828 0 1.5-.672 1.5-1.5s-.672-1.5-1.5-1.5-1.5.672-1.5 1.5.672 1.5 1.5 1.5zm0 1c-1.381 0-2.5-1.119-2.5-2.5s1.119-2.5 2.5-2.5 2.5 1.119 2.5 2.5-1.119 2.5-2.5 2.5z"></path>
        </g>
    </symbol>

    <symbol id="trend_ray">
        <g fill-rule="nonzero">
            <path d="M8.354 20.354l5-5-.707-.707-5 5z"></path>
            <path d="M16.354 12.354l8-8-.707-.707-8 8z"></path>
            <path d="M14.5 15c.828 0 1.5-.672 1.5-1.5s-.672-1.5-1.5-1.5-1.5.672-1.5 1.5.672 1.5 1.5 1.5zm0 1c-1.381 0-2.5-1.119-2.5-2.5s1.119-2.5 2.5-2.5 2.5 1.119 2.5 2.5-1.119 2.5-2.5 2.5zM6.5 23c.828 0 1.5-.672 1.5-1.5s-.672-1.5-1.5-1.5-1.5.672-1.5 1.5.672 1.5 1.5 1.5zm0 1c-1.381 0-2.5-1.119-2.5-2.5s1.119-2.5 2.5-2.5 2.5 1.119 2.5 2.5-1.119 2.5-2.5 2.5z"></path>
        </g>
    </symbol>

    <symbol id="trend_extended">
        <g fill-rule="nonzero">
            <path d="M4.354 25.354l5-5-.707-.707-5 5z"></path>
            <path d="M12.354 17.354l5-5-.707-.707-5 5z"></path>
            <path d="M20.354 9.354l5-5-.707-.707-5 5z"></path>
            <path d="M18.5 12c.828 0 1.5-.672 1.5-1.5s-.672-1.5-1.5-1.5-1.5.672-1.5 1.5.672 1.5 1.5 1.5zm0 1c-1.381 0-2.5-1.119-2.5-2.5s1.119-2.5 2.5-2.5 2.5 1.119 2.5 2.5-1.119 2.5-2.5 2.5zM10.5 20c.828 0 1.5-.672 1.5-1.5s-.672-1.5-1.5-1.5-1.5.672-1.5 1.5.672 1.5 1.5 1.5zm0 1c-1.381 0-2.5-1.119-2.5-2.5s1.119-2.5 2.5-2.5 2.5 1.119 2.5 2.5-1.119 2.5-2.5 2.5z"></path>
        </g>
    </symbol>

    <symbol id="horiz_line">
        <g fill-rule="nonzero">
            <path d="M4 15h8.5v-1h-8.5zM16.5 15h8.5v-1h-8.5z"></path>
            <path d="M14.5 16c.828 0 1.5-.672 1.5-1.5s-.672-1.5-1.5-1.5-1.5.672-1.5 1.5.672 1.5 1.5 1.5zm0 1c-1.381 0-2.5-1.119-2.5-2.5s1.119-2.5 2.5-2.5 2.5 1.119 2.5 2.5-1.119 2.5-2.5 2.5z"></path>
        </g>
    </symbol>

    <symbol id="horiz_ray">
        <g fill-rule="nonzero">
            <path d="M8.5 15h16.5v-1h-16.5z"></path>
            <path d="M6.5 16c.828 0 1.5-.672 1.5-1.5s-.672-1.5-1.5-1.5-1.5.672-1.5 1.5.672 1.5 1.5 1.5zm0 1c-1.381 0-2.5-1.119-2.5-2.5s1.119-2.5 2.5-2.5 2.5 1.119 2.5 2.5-1.119 2.5-2.5 2.5z"></path>
        </g>
    </symbol>

    <symbol id="vert_line">
        <g fill-rule="nonzero">
            <path d="M15 12.5v-8.5h-1v8.5zM14 16.5v8.5h1v-8.5z"></path>
            <path d="M14.5 16c.828 0 1.5-.672 1.5-1.5s-.672-1.5-1.5-1.5-1.5.672-1.5 1.5.672 1.5 1.5 1.5zm0 1c-1.381 0-2.5-1.119-2.5-2.5s1.119-2.5 2.5-2.5 2.5 1.119 2.5 2.5-1.119 2.5-2.5 2.5z"></path>
        </g>
    </symbol>

    <symbol id="channel_parallel">
        <g fill-rule="nonzero">
            <path d="M8.354 18.354l10-10-.707-.707-10 10zM12.354 25.354l5-5-.707-.707-5 5z"></path>
            <path d="M20.354 17.354l5-5-.707-.707-5 5z"></path>
            <path d="M19.5 8c.828 0 1.5-.672 1.5-1.5s-.672-1.5-1.5-1.5-1.5.672-1.5 1.5.672 1.5 1.5 1.5zm0 1c-1.381 0-2.5-1.119-2.5-2.5s1.119-2.5 2.5-2.5 2.5 1.119 2.5 2.5-1.119 2.5-2.5 2.5zM6.5 21c.828 0 1.5-.672 1.5-1.5s-.672-1.5-1.5-1.5-1.5.672-1.5 1.5.672 1.5 1.5 1.5zm0 1c-1.381 0-2.5-1.119-2.5-2.5s1.119-2.5 2.5-2.5 2.5 1.119 2.5 2.5-1.119 2.5-2.5 2.5zM18.5 20c.828 0 1.5-.672 1.5-1.5s-.672-1.5-1.5-1.5-1.5.672-1.5 1.5.672 1.5 1.5 1.5zm0 1c-1.381 0-2.5-1.119-2.5-2.5s1.119-2.5 2.5-2.5 2.5 1.119 2.5 2.5-1.119 2.5-2.5 2.5z"></path>
        </g>
    </symbol>

    <symbol id="channel_disjoint">
        <g fill-rule="nonzero">
            <path d="M20.534 4.664l-13.318 4.701.333.943 13.318-4.701zM20.802 22.371l-13.285-4.689-.333.943 13.285 4.689z"></path>
            <path d="M5.5 12c.828 0 1.5-.672 1.5-1.5s-.672-1.5-1.5-1.5-1.5.672-1.5 1.5.672 1.5 1.5 1.5zm0 1c-1.381 0-2.5-1.119-2.5-2.5s1.119-2.5 2.5-2.5 2.5 1.119 2.5 2.5-1.119 2.5-2.5 2.5zM22.5 6c.828 0 1.5-.672 1.5-1.5s-.672-1.5-1.5-1.5-1.5.672-1.5 1.5.672 1.5 1.5 1.5zm0 1c-1.381 0-2.5-1.119-2.5-2.5s1.119-2.5 2.5-2.5 2.5 1.119 2.5 2.5-1.119 2.5-2.5 2.5zM5.5 19c.828 0 1.5-.672 1.5-1.5s-.672-1.5-1.5-1.5-1.5.672-1.5 1.5.672 1.5 1.5 1.5zm0 1c-1.381 0-2.5-1.119-2.5-2.5s1.119-2.5 2.5-2.5 2.5 1.119 2.5 2.5-1.119 2.5-2.5 2.5zM22.5 25c.828 0 1.5-.672 1.5-1.5s-.672-1.5-1.5-1.5-1.5.672-1.5 1.5.672 1.5 1.5 1.5zm0 1c-1.381 0-2.5-1.119-2.5-2.5s1.119-2.5 2.5-2.5 2.5 1.119 2.5 2.5-1.119 2.5-2.5 2.5z"></path>
        </g>
    </symbol>

    <symbol id="brush">
        <g fill-rule="nonzero">
            <path d="M1.789 23l.859-.854.221-.228c.18-.19.38-.409.597-.655.619-.704 1.238-1.478 1.815-2.298.982-1.396 1.738-2.776 2.177-4.081 1.234-3.667 5.957-4.716 8.923-1.263 3.251 3.785-.037 9.38-5.379 9.38h-9.211zm9.211-1c4.544 0 7.272-4.642 4.621-7.728-2.45-2.853-6.225-2.015-7.216.931-.474 1.408-1.273 2.869-2.307 4.337-.599.852-1.241 1.653-1.882 2.383l-.068.078h6.853z"></path>
            <path d="M18.182 6.002l-1.419 1.286c-1.031.935-1.075 2.501-.096 3.48l1.877 1.877c.976.976 2.553.954 3.513-.045l5.65-5.874-.721-.693-5.65 5.874c-.574.596-1.507.609-2.086.031l-1.877-1.877c-.574-.574-.548-1.48.061-2.032l1.419-1.286-.672-.741z"></path>
        </g>
    </symbol>

    <symbol id="highlighter">
        <path fill-rule="evenodd" clip-rule="evenodd" d="M13.402 0L6.78144 6.71532C6.67313 6.82518 6.5917 6.95862 6.54354 7.10518L5.13578 11.3889C4.89843 12.1111 5.08375 12.9074 5.61449 13.4458L5.68264 13.5149L0 19.2789L8.12695 22.4056L11.2874 19.1999L11.3556 19.269C11.8863 19.8073 12.6713 19.9953 13.3834 19.7546L17.6013 18.3285C17.7493 18.2784 17.8835 18.1945 17.9931 18.0832L24.6912 11.2892L23.9857 10.5837L17.515 17.147L7.70658 7.19818L14.1076 0.705575L13.402 0ZM6.07573 11.7067L7.24437 8.15061L16.576 17.6158L13.0701 18.8012C12.7141 18.9215 12.3215 18.8275 12.0562 18.5584L6.31509 12.7351C6.04972 12.466 5.95706 12.0678 6.07573 11.7067ZM6.30539 14.3045L10.509 18.5682L7.87935 21.2355L1.78414 18.8904L6.30539 14.3045Z"></path>
    </symbol>

    <symbol id="trend_arrow">
        <path fill-rule="nonzero" d="M7.354 21.354l14-14-.707-.707-14 14z"></path>
        <path d="M21 7l-8 3 5 5z"></path>
        <path fill-rule="nonzero" d="M22.5 7c.828 0 1.5-.672 1.5-1.5s-.672-1.5-1.5-1.5-1.5.672-1.5 1.5.672 1.5 1.5 1.5zm0 1c-1.381 0-2.5-1.119-2.5-2.5s1.119-2.5 2.5-2.5 2.5 1.119 2.5 2.5-1.119 2.5-2.5 2.5zM5.5 24c.828 0 1.5-.672 1.5-1.5s-.672-1.5-1.5-1.5-1.5.672-1.5 1.5.672 1.5 1.5 1.5zm0 1c-1.381 0-2.5-1.119-2.5-2.5s1.119-2.5 2.5-2.5 2.5 1.119 2.5 2.5-1.119 2.5-2.5 2.5z"></path>
    </symbol>

    <symbol id="polyline">
        <g fill-rule="nonzero">
            <path d="M16.5 6h4v-1h-4z" id="Line"></path>
            <path d="M16.5 15h4v-1h-4z"></path>
            <path d="M8.5 23h4v-1h-4z"></path>
            <path d="M8.298 11.591l5.097-4.46-.659-.753-5.097 4.46zM22 7.5v5h1v-5z"></path>
            <path d="M14 16.5v4h1v-4z"></path>
            <path d="M6 14.5v6h1v-6z"></path>
            <path d="M6.5 14c.828 0 1.5-.672 1.5-1.5s-.672-1.5-1.5-1.5-1.5.672-1.5 1.5.672 1.5 1.5 1.5zm0 1c-1.381 0-2.5-1.119-2.5-2.5s1.119-2.5 2.5-2.5 2.5 1.119 2.5 2.5-1.119 2.5-2.5 2.5zM14.5 7c.828 0 1.5-.672 1.5-1.5s-.672-1.5-1.5-1.5-1.5.672-1.5 1.5.672 1.5 1.5 1.5zm0 1c-1.381 0-2.5-1.119-2.5-2.5s1.119-2.5 2.5-2.5 2.5 1.119 2.5 2.5-1.119 2.5-2.5 2.5zM22.5 7c.828 0 1.5-.672 1.5-1.5s-.672-1.5-1.5-1.5-1.5.672-1.5 1.5.672 1.5 1.5 1.5zm0 1c-1.381 0-2.5-1.119-2.5-2.5s1.119-2.5 2.5-2.5 2.5 1.119 2.5 2.5-1.119 2.5-2.5 2.5zM14.5 16c.828 0 1.5-.672 1.5-1.5s-.672-1.5-1.5-1.5-1.5.672-1.5 1.5.672 1.5 1.5 1.5zm0 1c-1.381 0-2.5-1.119-2.5-2.5s1.119-2.5 2.5-2.5 2.5 1.119 2.5 2.5-1.119 2.5-2.5 2.5zM22.5 16c.828 0 1.5-.672 1.5-1.5s-.672-1.5-1.5-1.5-1.5.672-1.5 1.5.672 1.5 1.5 1.5zm0 1c-1.381 0-2.5-1.119-2.5-2.5s1.119-2.5 2.5-2.5 2.5 1.119 2.5 2.5-1.119 2.5-2.5 2.5zM6.5 24c.828 0 1.5-.672 1.5-1.5s-.672-1.5-1.5-1.5-1.5.672-1.5 1.5.672 1.5 1.5 1.5zm0 1c-1.381 0-2.5-1.119-2.5-2.5s1.119-2.5 2.5-2.5 2.5 1.119 2.5 2.5-1.119 2.5-2.5 2.5zM14.5 24c.828 0 1.5-.672 1.5-1.5s-.672-1.5-1.5-1.5-1.5.672-1.5 1.5.672 1.5 1.5 1.5zm0 1c-1.381 0-2.5-1.119-2.5-2.5s1.119-2.5 2.5-2.5 2.5 1.119 2.5 2.5-1.119 2.5-2.5 2.5z"></path>
        </g>
    </symbol>

    <symbol id="magnet">
        <g fill-rule="evenodd">
            <path fill-rule="nonzero" d="M14 10a2 2 0 0 0-2 2v11H6V12c0-4.416 3.584-8 8-8s8 3.584 8 8v11h-6V12a2 2 0 0 0-2-2zm-3 2a3 3 0 0 1 6 0v10h4V12c0-3.864-3.136-7-7-7s-7 3.136-7 7v10h4V12z"></path>
            <path d="M6.5 18h5v1h-5zm10 0h5v1h-5z"></path>
        </g>
    </symbol>

    <symbol id="magnet_strong">
        <path fill-rule="nonzero" d="M14 5a7 7 0 0 0-7 7v3h4v-3a3 3 0 1 1 6 0v3h4v-3a7 7 0 0 0-7-7zm7 11h-4v3h4v-3zm-10 0H7v3h4v-3zm-5-4a8 8 0 1 1 16 0v8h-6v-8a2 2 0 1 0-4 0v8H6v-8zm3.293 11.294l-1.222-2.037.858-.514 1.777 2.963-2 1 1.223 2.037-.858.514-1.778-2.963 2-1zm9.778-2.551l.858.514-1.223 2.037 2 1-1.777 2.963-.858-.514 1.223-2.037-2-1 1.777-2.963z"></path>
    </symbol>

    <symbol id="star">
        <path fill-rule="evenodd" clip-rule="evenodd" d="M9.103.687a1 1 0 0 1 1.794 0l2.374 4.81 5.309.772a1 1 0 0 1 .554 1.706l-3.841 3.745.906 5.287a1 1 0 0 1-1.45 1.054L10 15.565 5.252 18.06A1 1 0 0 1 3.8 17.007l.907-5.287L.866 7.975a1 1 0 0 1 .554-1.706l5.31-.771L9.102.688zM10 1.13L7.393 6.412l-5.829.847 4.218 4.111-.996 5.806L10 14.436l5.214 2.74-.996-5.805 4.218-4.112-5.83-.847L10 1.13z"></path>
    </symbol>

    <symbol id="trash">
        <path fill-rule="evenodd" d="M11.5 6a.5.5 0 0 0-.5.5V8h6V6.5a.5.5 0 0 0-.5-.5h-5zM18 8V6.5c0-.83-.67-1.5-1.5-1.5h-5c-.83 0-1.5.67-1.5 1.5V8H5.5a.5.5 0 0 0 0 1H7v12.5A2.5 2.5 0 0 0 9.5 24h9a2.5 2.5 0 0 0 2.5-2.5V9h1.5a.5.5 0 0 0 0-1H18zm2 1H8v12.5c0 .83.67 1.5 1.5 1.5h9c.83 0 1.5-.67 1.5-1.5V9zm-8.5 3c.28 0 .5.22.5.5v7a.5.5 0 0 1-1 0v-7c0-.28.22-.5.5-.5zm5.5.5a.5.5 0 0 0-1 0v7a.5.5 0 0 0 1 0v-7z"></path>
    </symbol>

    <symbol id="lock_unlocked">
        <path fill-rule="evenodd" d="M14 6a3 3 0 0 0-3 3v3h8.5a2.5 2.5 0 0 1 2.5 2.5v7a2.5 2.5 0 0 1-2.5 2.5h-11A2.5 2.5 0 0 1 6 21.5v-7A2.5 2.5 0 0 1 8.5 12H10V9a4 4 0 0 1 8 0h-1a3 3 0 0 0-3-3zm-1 11a1 1 0 1 1 2 0v2a1 1 0 1 1-2 0v-2zm-6-2.5c0-.83.67-1.5 1.5-1.5h11c.83 0 1.5.67 1.5 1.5v7c0 .83-.67 1.5-1.5 1.5h-11A1.5 1.5 0 0 1 7 21.5v-7z"></path>
    </symbol>

    <symbol id="lock_locked">
        <path fill-rule="evenodd" d="M14 6a3 3 0 0 0-3 3v3h6V9a3 3 0 0 0-3-3zm4 6V9a4 4 0 0 0-8 0v3H8.5A2.5 2.5 0 0 0 6 14.5v7A2.5 2.5 0 0 0 8.5 24h11a2.5 2.5 0 0 0 2.5-2.5v-7a2.5 2.5 0 0 0-2.5-2.5H18zm-5 5a1 1 0 1 1 2 0v2a1 1 0 1 1-2 0v-2zm-6-2.5c0-.83.67-1.5 1.5-1.5h11c.83 0 1.5.67 1.5 1.5v7c0 .83-.67 1.5-1.5 1.5h-11A1.5 1.5 0 0 1 7 21.5v-7z"></path>
    </symbol>

    <symbol id="ruler">
        <path d="M2 9.75a1.5 1.5 0 0 0-1.5 1.5v5.5a1.5 1.5 0 0 0 1.5 1.5h24a1.5 1.5 0 0 0 1.5-1.5v-5.5a1.5 1.5 0 0 0-1.5-1.5zm0 1h3v2.5h1v-2.5h3.25v3.9h1v-3.9h3.25v2.5h1v-2.5h3.25v3.9h1v-3.9H22v2.5h1v-2.5h3a.5.5 0 0 1 .5.5v5.5a.5.5 0 0 1-.5.5H2a.5.5 0 0 1-.5-.5v-5.5a.5.5 0 0 1 .5-.5z" transform="rotate(-45 14 14)"></path>
    </symbol>

    <symbol id="bar_pattern">
        <g fill-rule="nonzero">
            <path d="M6 6v6.5h1v-6.5zM7 22v-2.5h-1v2.5zM11 11v2.5h1v-2.5zM12 24v-7.5h-1v7.5zM16 5v5.5h1v-5.5zM17 21v-2.5h-1v2.5zM21 7v4.5h1v-4.5zM22 19v-2.5h-1v2.5z"></path>
            <path d="M6 13v6h1v-6h-1zm-1-1h3v8h-3v-8z"></path>
            <path d="M11 16h1v-2h-1v2zm-1-3h3v4h-3v-4z"></path>
            <path d="M16 18h1v-7h-1v7zm-1-8h3v9h-3v-9z"></path>
            <path d="M21 16h1v-4h-1v4zm-1-5h3v6h-3v-6z"></path>
        </g>
    </symbol>

    <symbol id="bar_ghost_feed">
        <path fill-rule="nonzero" d="M4.529 18.21l3.157-1.292-.379-.926-3.157 1.292z"></path>
        <path fill-rule="nonzero" d="M9.734 16.081l2.97-1.215-.379-.926-2.97 1.215z"></path>
        <path fill-rule="nonzero" d="M14.725 14.039l2.957-1.21-.379-.926-2.957 1.21z"></path>
        <path fill-rule="nonzero" d="M19.708 12.001l3.114-1.274-.379-.926-3.114 1.274z"></path>
        <path d="M8 18h1v3h-1z" id="Path"></path>
        <path d="M8 9h1v5h-1z"></path>
        <path fill-rule="nonzero" d="M8 18h1v-4h-1v4zm-1-5h3v6h-3v-6z" id="Rectangle-44"></path>
        <path d="M18 16h1v3h-1z" id="Path"></path>
        <path d="M18 3h1v6h-1z"></path>
        <path fill-rule="nonzero" d="M18 16h1v-7h-1v7zm-1-8h3v9h-3v-9z" id="Rectangle-44"></path>
        <path d="M13 6h1v5h-1z"></path>
        <path d="M13 15h1v5h-1z"></path>
        <path fill-rule="nonzero" d="M13 15h1v-4h-1v4zm-1-5h3v6h-3v-6z"></path>
        <path fill-rule="nonzero" d="M2.5 20c.828 0 1.5-.672 1.5-1.5s-.672-1.5-1.5-1.5-1.5.672-1.5 1.5.672 1.5 1.5 1.5zm0 1c-1.381 0-2.5-1.119-2.5-2.5s1.119-2.5 2.5-2.5 2.5 1.119 2.5 2.5-1.119 2.5-2.5 2.5zM24.5 11c.828 0 1.5-.672 1.5-1.5s-.672-1.5-1.5-1.5-1.5.672-1.5 1.5.672 1.5 1.5 1.5zm0 1c-1.381 0-2.5-1.119-2.5-2.5s1.119-2.5 2.5-2.5 2.5 1.119 2.5 2.5-1.119 2.5-2.5 2.5z"></path>
    </symbol>

    <symbol id="vol_profile_fixed">
        <path fill-rule="evenodd" clip-rule="evenodd" d="M5 21.5a1.5 1.5 0 1 1-3 0 1.5 1.5 0 0 1 3 0zM3.5 24a2.5 2.5 0 0 0 .5-4.95V3H3v16.05A2.5 2.5 0 0 0 3.5 24zM25 5.5a1.5 1.5 0 1 0-3 0 1.5 1.5 0 0 0 3 0zM23.5 3a2.5 2.5 0 0 1 .5 4.95V24h-1V7.95A2.5 2.5 0 0 1 23.5 3z"></path>
        <path fill-rule="evenodd" clip-rule="evenodd" d="M9 7H4v2h5V7zM3 6v4h7V6H3z"></path>
        <path fill-rule="evenodd" clip-rule="evenodd" d="M12 10H4v2h8v-2zM3 9v4h10V9H3z"></path>
        <path fill-rule="evenodd" clip-rule="evenodd" d="M7 13H4v2h3v-2zm-4-1v4h5v-4H3z"></path>
    </symbol>

    <symbol id="vol_profile_anchored">
        <path fill-rule="evenodd" d="M24 3h-1v4h-6v3h-5v3H8.95a2.5 2.5 0 1 0 0 1H15v3h5v3h3v4h1V3Zm-6 7h5V8h-5v2Zm-1 1h-4v2h10v-2h-6Zm4 5h-5v-2h7v2h-2Zm0 3v-2h2v2h-2ZM6.5 15a1.5 1.5 0 1 0 0-3 1.5 1.5 0 0 0 0 3Z"></path>
    </symbol>

    <symbol id="range_price">
        <path fill-rule="nonzero" d="M4 5h16.5v-1h-16.5zM25 24h-16.5v1h16.5z" id="Line"></path>
        <path fill-rule="nonzero" d="M6.5 26c.828 0 1.5-.672 1.5-1.5s-.672-1.5-1.5-1.5-1.5.672-1.5 1.5.672 1.5 1.5 1.5zm0 1c-1.381 0-2.5-1.119-2.5-2.5s1.119-2.5 2.5-2.5 2.5 1.119 2.5 2.5-1.119 2.5-2.5 2.5zM22.5 6c.828 0 1.5-.672 1.5-1.5s-.672-1.5-1.5-1.5-1.5.672-1.5 1.5.672 1.5 1.5 1.5zm0 1c-1.381 0-2.5-1.119-2.5-2.5s1.119-2.5 2.5-2.5 2.5 1.119 2.5 2.5-1.119 2.5-2.5 2.5z"></path>
        <path fill-rule="nonzero" d="M14 9v14h1v-14z"></path>
        <path d="M14.5 6l2.5 3h-5z"></path>
    </symbol>

    <symbol id="range_date">
        <path fill-rule="nonzero" d="M20 14h-14v1h14z" id="Line"></path>
        <path d="M20 17v-5l3 2.5z"></path>
        <path fill-rule="nonzero" d="M24 8.5v16.5h1v-16.5zM4 4v16.5h1v-16.5z"></path>
        <path fill-rule="nonzero" d="M4.5 24c.828 0 1.5-.672 1.5-1.5s-.672-1.5-1.5-1.5-1.5.672-1.5 1.5.672 1.5 1.5 1.5zm0 1c-1.381 0-2.5-1.119-2.5-2.5s1.119-2.5 2.5-2.5 2.5 1.119 2.5 2.5-1.119 2.5-2.5 2.5zM24.5 8c.828 0 1.5-.672 1.5-1.5s-.672-1.5-1.5-1.5-1.5.672-1.5 1.5.672 1.5 1.5 1.5zm0 1c-1.381 0-2.5-1.119-2.5-2.5s1.119-2.5 2.5-2.5 2.5 1.119 2.5 2.5-1.119 2.5-2.5 2.5z"></path>
    </symbol>

    <symbol id="range_price_date">
        <path fill-rule="nonzero" d="M6.5 23v1h17.5v-17.5h-1v16.5z"></path>
        <path fill-rule="nonzero" d="M21.5 5v-1h-17.5v17.5h1v-16.5z"></path>
        <path fill-rule="nonzero" d="M4.5 25c.828 0 1.5-.672 1.5-1.5s-.672-1.5-1.5-1.5-1.5.672-1.5 1.5.672 1.5 1.5 1.5zm0 1c-1.381 0-2.5-1.119-2.5-2.5s1.119-2.5 2.5-2.5 2.5 1.119 2.5 2.5-1.119 2.5-2.5 2.5zM23.5 6c.828 0 1.5-.672 1.5-1.5s-.672-1.5-1.5-1.5-1.5.672-1.5 1.5.672 1.5 1.5 1.5zm0 1c-1.381 0-2.5-1.119-2.5-2.5s1.119-2.5 2.5-2.5 2.5 1.119 2.5 2.5-1.119 2.5-2.5 2.5z"></path><path fill-rule="nonzero" d="M13 9v13h1v-13z" id="Line"></path>
        <path d="M13.5 6l2.5 3h-5z"></path>
        <path fill-rule="nonzero" d="M19 14h-13v1h13z"></path>
        <path d="M19 17v-5l3 2.5z"></path>
    </symbol>

    <symbol id="settings">
        <path fill-rule="evenodd" d="M18 14a4 4 0 1 1-8 0 4 4 0 0 1 8 0Zm-1 0a3 3 0 1 1-6 0 3 3 0 0 1 6 0Z"></path>
        <path fill-rule="evenodd" d="M8.5 5h11l5 9-5 9h-11l-5-9 5-9Zm-3.86 9L9.1 6h9.82l4.45 8-4.45 8H9.1l-4.45-8Z"></path>
    </symbol>

    <symbol id="calendar_to_date">
        <path fill-rule="evenodd" d="M11 4h-1v2H7.5A2.5 2.5 0 0 0 5 8.5V13h1v-2h16v8.5c0 .83-.67 1.5-1.5 1.5H14v1h6.5a2.5 2.5 0 0 0 2.5-2.5v-11A2.5 2.5 0 0 0 20.5 6H18V4h-1v2h-6V4Zm6 4V7h-6v1h-1V7H7.5C6.67 7 6 7.67 6 8.5V10h16V8.5c0-.83-.67-1.5-1.5-1.5H18v1h-1Zm-5.15 10.15-3.5-3.5-.7.7L10.29 18H4v1h6.3l-2.65 2.65.7.7 3.5-3.5.36-.35-.36-.35Z"></path>
    </symbol>

    <symbol id="eye_normal" fill="currentColor">
        <path fill-rule="evenodd" clip-rule="evenodd" d="M17.9948 7.91366C16.6965 6.48549 14.6975 5 11.9999 5C9.30225 5 7.30322 6.48549 6.00488 7.91366C6.00488 7.91366 4 10 4 11C4 12 6.00488 14.0863 6.00488 14.0863C7.30322 15.5145 9.30225 17 11.9999 17C14.6975 17 16.6965 15.5145 17.9948 14.0863C17.9948 14.0863 20 12 20 11C20 10 17.9948 7.91366 17.9948 7.91366ZM6.74482 13.4137C7.94648 14.7355 9.69746 16 11.9999 16C14.3022 16 16.0532 14.7355 17.2549 13.4137C17.2549 13.4137 19 11.5 19 11C19 10.5 17.2549 8.58634 17.2549 8.58634C16.0532 7.26451 14.3022 6 11.9999 6C9.69746 6 7.94648 7.26451 6.74482 8.58634C6.74482 8.58634 5 10.5 5 11C5 11.5 6.74482 13.4137 6.74482 13.4137Z"></path>
        <path fill-rule="evenodd" clip-rule="evenodd" d="M12 13C13.1046 13 14 12.1046 14 11C14 9.89543 13.1046 9 12 9C10.8954 9 10 9.89543 10 11C10 12.1046 10.8954 13 12 13ZM12 14C13.6569 14 15 12.6569 15 11C15 9.34315 13.6569 8 12 8C10.3431 8 9 9.34315 9 11C9 12.6569 10.3431 14 12 14Z"></path>
        <path fill-rule="evenodd" clip-rule="evenodd" d="M8.8503 16.2712C9.76531 16.7135 10.8152 17 11.9999 17C14.6975 17 16.6965 15.5145 17.9948 14.0863C17.9948 14.0863 20 12 20 11C20 10 17.9948 7.91366 17.9948 7.91366C17.8729 7.77954 17.7448 7.64491 17.6105 7.51105L16.9035 8.2181C17.0254 8.33968 17.1425 8.46276 17.2549 8.58634C17.2549 8.58634 19 10.5 19 11C19 11.5 17.2549 13.4137 17.2549 13.4137C16.0532 14.7355 14.3022 16 11.9999 16C11.1218 16 10.324 15.8161 9.60627 15.5153L8.8503 16.2712ZM7.09663 13.7823C6.97455 13.6606 6.85728 13.5374 6.74482 13.4137C6.74482 13.4137 5 11.5 5 11C5 10.5 6.74482 8.58634 6.74482 8.58634C7.94648 7.26451 9.69746 6 11.9999 6C12.8781 6 13.6761 6.18398 14.394 6.48495L15.1499 5.729C14.2348 5.28657 13.1847 5 11.9999 5C9.30225 5 7.30322 6.48549 6.00488 7.91366C6.00488 7.91366 4 10 4 11C4 12 6.00488 14.0863 6.00488 14.0863C6.12693 14.2206 6.25516 14.3553 6.38959 14.4893L7.09663 13.7823Z"></path>
        <path fill-rule="evenodd" clip-rule="evenodd" d="M11.2231 13.8984C11.4709 13.9647 11.7313 14 12 14C13.6569 14 15 12.6569 15 11C15 10.7313 14.9647 10.4709 14.8984 10.2231L13.9961 11.1254C13.934 12.1301 13.1301 12.934 12.1254 12.9961L11.2231 13.8984ZM11.8751 9.00384C10.87 9.06578 10.0658 9.87001 10.0038 10.8751L9.10166 11.7772C9.03535 11.5294 9 11.2688 9 11C9 9.34315 10.3431 8 12 8C12.2688 8 12.5294 8.03535 12.7772 8.10166L11.8751 9.00384Z"></path>
    </symbol>

    <symbol id="eye_crossed">
        <path fill-rule="evenodd" clip-rule="evenodd" d="M5.64648 16.6465L17.6465 4.64648L18.3536 5.35359L6.35359 17.3536L5.64648 16.6465Z"></path>
        <path fill-rule="evenodd" clip-rule="evenodd" d="M8.8503 16.2712C9.76531 16.7135 10.8152 17 11.9999 17C14.6975 17 16.6965 15.5145 17.9948 14.0863C17.9948 14.0863 20 12 20 11C20 10 17.9948 7.91366 17.9948 7.91366C17.8729 7.77954 17.7448 7.64491 17.6105 7.51105L16.9035 8.2181C17.0254 8.33968 17.1425 8.46276 17.2549 8.58634C17.2549 8.58634 19 10.5 19 11C19 11.5 17.2549 13.4137 17.2549 13.4137C16.0532 14.7355 14.3022 16 11.9999 16C11.1218 16 10.324 15.8161 9.60627 15.5153L8.8503 16.2712ZM7.09663 13.7823C6.97455 13.6606 6.85728 13.5374 6.74482 13.4137C6.74482 13.4137 5 11.5 5 11C5 10.5 6.74482 8.58634 6.74482 8.58634C7.94648 7.26451 9.69746 6 11.9999 6C12.8781 6 13.6761 6.18398 14.394 6.48495L15.1499 5.729C14.2348 5.28657 13.1847 5 11.9999 5C9.30225 5 7.30322 6.48549 6.00488 7.91366C6.00488 7.91366 4 10 4 11C4 12 6.00488 14.0863 6.00488 14.0863C6.12693 14.2206 6.25516 14.3553 6.38959 14.4893L7.09663 13.7823Z"></path>
        <path fill-rule="evenodd" clip-rule="evenodd" d="M11.2231 13.8984C11.4709 13.9647 11.7313 14 12 14C13.6569 14 15 12.6569 15 11C15 10.7313 14.9647 10.4709 14.8984 10.2231L13.9961 11.1254C13.934 12.1301 13.1301 12.934 12.1254 12.9961L11.2231 13.8984ZM11.8751 9.00384C10.87 9.06578 10.0658 9.87001 10.0038 10.8751L9.10166 11.7772C9.03535 11.5294 9 11.2688 9 11C9 9.34315 10.3431 8 12 8C12.2688 8 12.5294 8.03535 12.7772 8.10166L11.8751 9.00384Z"></path>
    </symbol>

    <symbol id="eye_loading">
        <path fill-rule="evenodd" clip-rule="evenodd" d="M17.9948 7.91366C16.6965 6.48549 14.6975 5 11.9999 5C9.30225 5 7.30322 6.48549 6.00488 7.91366C6.00488 7.91366 4 10 4 11C4 12 6.00488 14.0863 6.00488 14.0863C7.30322 15.5145 9.30225 17 11.9999 17C14.6975 17 16.6965 15.5145 17.9948 14.0863C17.9948 14.0863 20 12 20 11C20 10 17.9948 7.91366 17.9948 7.91366ZM6.74482 13.4137C7.94648 14.7355 9.69746 16 11.9999 16C14.3022 16 16.0532 14.7355 17.2549 13.4137C17.2549 13.4137 19 11.5 19 11C19 10.5 17.2549 8.58634 17.2549 8.58634C16.0532 7.26451 14.3022 6 11.9999 6C9.69746 6 7.94648 7.26451 6.74482 8.58634C6.74482 8.58634 5 10.5 5 11C5 11.5 6.74482 13.4137 6.74482 13.4137Z"></path>
    </symbol>

    <symbol id="eye_loading_animated"> 
        <path stroke-linecap="round" d="M14.5 11C14.5 9.61929 13.3807 8.5 12 8.5C10.6193 8.5 9.5 9.61929 9.5 11C9.5 12.3807 10.6193 13.5 12 13.5"></path>
    </symbol>

    <symbol id="menu_ext">
        <circle stroke="currentColor" cx="2" cy="2" r="1.5"></circle>
        <circle stroke="currentColor" cx="8" cy="2" r="1.5"></circle>
        <circle stroke="currentColor" cx="14" cy="2" r="1.5"></circle>
    </symbol>

    <symbol id="close">
        <path fill-rule="evenodd" clip-rule="evenodd" d="M17.35 6.35l-10 10-.7-.7 10-10 .7.7z"></path>
        <path fill-rule="evenodd" clip-rule="evenodd" d="M6.65 6.35l10 10 .7-.7-10-10-.7.7z"></path>
    </symbol>

    <symbol id="watchlist">
        <path d="M13 11h18a2 2 0 0 1 2 2v17a2 2 0 0 1-2 2H13a2 2 0 0 1-2-2V13c0-1.1.9-2 2-2Zm18-1H13a3 3 0 0 0-3 3v17a3 3 0 0 0 3 3h18a3 3 0 0 0 3-3V13a3 3 0 0 0-3-3Zm-2 11H15v1h14v-1Zm-14-5h14v1H15v-1Zm14 10H15v1h14v-1Z"></path>
    </symbol>

    <symbol id="alert" viewBox="0 0 44 44" width="44" height="44">
        <path fill="currentColor" d="M35 14.66 29.16 9l-.7.72 5.84 5.66.7-.72ZM9 14.66 14.84 9l.7.72-5.84 5.66-.7-.72ZM22 16v7h-5v1h6v-8h-1Z"></path>
        <path fill="currentColor" fill-rule="evenodd" d="M22 33a11 11 0 1 0 0-22 11 11 0 0 0 0 22Zm0-1a10 10 0 1 0 0-20 10 10 0 0 0 0 20Z"></path>
    </symbol>
    
    <symbol id="object_tree">
        <path d="M21.34 12.13a1 1 0 0 1 .98 0l10.41 5.93a1 1 0 0 1 0 1.73l-10.4 5.93a1 1 0 0 1-.99 0L10.78 19.8a1 1 0 0 1 0-1.75l10.56-5.92Zm.49.87-10.56 5.93 10.56 5.93 10.4-5.93L21.84 13ZM33.5 24.86l-11.66 6.8L10 25l.5-.87 11.33 6.38L32.99 24l.5.87Z"></path>
    </symbol>

    <symbol id="hotlist">
        <path fill-rule="evenodd" d="M29.48 15.32c-.16-.14-.4-.07-.48.13a6.05 6.05 0 0 1-2.38 3.13 6.16 6.16 0 0 1-.8.42c-.06.03-.14-.03-.13-.1a19.45 19.45 0 0 0 .08-.9v-.1c.38-5.91-2.43-9.13-4.59-10.41a7.4 7.4 0 0 0-.79-.4c-.1-.05-.21.13-.2.24a5.7 5.7 0 0 1-.04.73v.01c-.27 2.49-2.22 4.29-4.21 6.14-1.63 1.5-3.29 3.05-4.11 5.02a10.48 10.48 0 0 0-.83 4.06A10.9 10.9 0 0 0 20.17 34c.95-.59 1.34-1.82 1.33-3.04 0-.35-.04-.7-.11-1.03.28 0 .68.14 1.07.41A3.36 3.36 0 0 1 23.83 34 10.89 10.89 0 0 0 33 23.29c0-3.15-1.36-5.98-3.52-7.97Zm-4.56 17.4c4.1-1.23 7.08-5 7.08-9.43 0-2.5-.94-4.78-2.5-6.52a6.43 6.43 0 0 1-3.27 3.14m-1.3 12.81a4.3 4.3 0 0 0-2.2-3.39c-.4-.23-.88-.4-1.34-.4h-1.22l.24 1.2c.13.62.12 1.3-.03 1.86-.1.41-.27.73-.48.94A9.9 9.9 0 0 1 12 23.3c0-1.3.27-2.53.75-3.67.42-1 1.1-1.91 1.95-2.81.6-.64 1.23-1.23 1.9-1.84l.87-.82c1.57-1.5 3.2-3.22 3.61-5.54 1.9 1.34 4.29 4.44 3.61 10.16-.09.78.7 1.52 1.55 1.14"></path>
    </symbol>

    <symbol id="calendar">
        <path fill-rule="evenodd" d="M15 11h2v4h-2v-4Zm-1 0a1 1 0 0 1 1-1h2a1 1 0 0 1 1 1v1h8v-1a1 1 0 0 1 1-1h2a1 1 0 0 1 1 1v1h1a3 3 0 0 1 3 3v16a3 3 0 0 1-3 3H13a3 3 0 0 1-3-3V15a3 3 0 0 1 3-3h1v-1Zm4 2h8v2a1 1 0 0 0 1 1h2a1 1 0 0 0 1-1v-2h1a2 2 0 0 1 2 2v4H11v-4c0-1.1.9-2 2-2h1v2a1 1 0 0 0 1 1h2a1 1 0 0 0 1-1v-2Zm-7 7v11c0 1.1.9 2 2 2h18a2 2 0 0 0 2-2V20H11Zm18-9h-2v4h2v-4Z"></path>
    </symbol>
    
    <symbol id="light_bulb_off">
        <path fill-rule="evenodd" d="M25.5 26a8.5 8.5 0 1 0-8 0H21v-6h-2v-1h5v1h-2v6h3.5ZM17 30v-3h9v3a1 1 0 0 1-1 1h-7a1 1 0 0 1-1-1Zm-5-11.5c0 3.2 1.58 6.03 4 7.75V30c0 1.1.9 2 2 2 0 1.1.9 2 2 2h3a2 2 0 0 0 2-2 2 2 0 0 0 2-2v-3.75A9.49 9.49 0 0 0 21.5 9a9.5 9.5 0 0 0-9.5 9.5ZM19 32a1 1 0 0 0 1 1h3a1 1 0 0 0 1-1h-5Z"></path>
    </symbol>
    
    <symbol id="light_bulb_on">
        <path fill-rule="evenodd" d="M30 18.5a8.5 8.5 0 0 1-4.5 7.5H22v-6h2v-1h-5v1h2v6h-3.5A8.5 8.5 0 1 1 30 18.5ZM17 27v3a1 1 0 0 0 1 1h7a1 1 0 0 0 1-1v-3h-9Zm-1-.75A9.49 9.49 0 0 1 21.5 9 9.5 9.5 0 0 1 27 26.25V30a2 2 0 0 1-2 2 2 2 0 0 1-2 2h-3a2 2 0 0 1-2-2 2 2 0 0 1-2-2v-3.75ZM20 33a1 1 0 0 1-1-1h5a1 1 0 0 1-1 1h-3ZM6.94 18.5c0-2.2.57-4.26 1.56-6.08L7.67 12a13.48 13.48 0 0 0 0 13l.83-.42a12.6 12.6 0 0 1-1.56-6.08Zm27.56-6.08a12.6 12.6 0 0 1 0 12.16l.83.42a13.48 13.48 0 0 0 0-13l-.83.42ZM9.77 18.5a10 10 0 0 1 1.24-4.82l-.84-.42a10.87 10.87 0 0 0 0 10.48l.84-.42a10 10 0 0 1-1.24-4.82ZM32 13.68a10 10 0 0 1 0 9.64l.84.42a10.87 10.87 0 0 0 0-10.48l-.84.42Z"></path>
    </symbol>
    
    <symbol id="alert_notification">
        <path d="M22.5 11a2.5 2.5 0 0 0-2.48 2.14.5.5 0 0 1-.3.4C16.97 14.63 15 17.2 15 20V27h15V20c0-2.8-1.98-5.37-4.71-6.46a.5.5 0 0 1-.31-.4A2.5 2.5 0 0 0 22.5 11ZM31 27a2 2 0 1 1 0 4h-5.04c-.26 1.57-1.7 3-3.46 3a3.62 3.62 0 0 1-3.46-3H14a2 2 0 1 1 0-4V20c0-3.18 2.16-6.01 5.09-7.28a3.5 3.5 0 0 1 6.82 0C28.84 13.99 31 16.82 31 20V27Zm-10.94 4c.25 1.06 1.26 2 2.44 2s2.19-.94 2.44-2h-4.88ZM14 28a1 1 0 1 0 0 2h17a1 1 0 1 0 0-2H14Z"></path>
    </symbol>
    
    <symbol id="question_mark">
        <path d="M10 21.5a11.5 11.5 0 1 1 23 0 11.5 11.5 0 0 1-23 0ZM21.5 9a12.5 12.5 0 1 0 0 25 12.5 12.5 0 0 0 0-25ZM18 17c0-.87.32-1.6.9-2.13a3.78 3.78 0 0 1 2.6-.87c2.32 0 3.5 1.37 3.5 2.5 0 1.23-.8 1.96-1.8 2.7l-.27.2c-.4.3-.83.61-1.16.95-.42.42-.77.95-.77 1.65v2h1v-2c0-.32.15-.62.48-.95.27-.27.62-.52 1.01-.81l.3-.23c1-.74 2.21-1.74 2.21-3.51 0-1.87-1.82-3.5-4.5-3.5-1.35 0-2.48.4-3.27 1.13A3.8 3.8 0 0 0 17 17h1Zm4.5 11c0 .55-.46 1-1 1s-1-.45-1-1 .46-1 1-1 1 .45 1 1Zm-1 2c1.08 0 2-.9 2-2s-.92-2-2-2-2 .9-2 2 .92 2 2 2Z"></path>
    </symbol>
    
    <symbol id="copy">
        <path d="M8 9.5H6.5a1 1 0 0 0-1 1v11a1 1 0 0 0 1 1h11a1 1 0 0 0 1-1V20m-8-1.5h11a1 1 0 0 0 1-1v-11a1 1 0 0 0-1-1h-11a1 1 0 0 0-1 1v11a1 1 0 0 0 1 1z"></path>
    </symbol>
    
    <symbol id="edit">
        <path d="M16.73 6.56a2.5 2.5 0 0 1 3.54 0l1.17 1.17a2.5 2.5 0 0 1 0 3.54l-.59.58-9 9-1 1-.14.15H6v-4.7l.15-.15 1-1 9-9 .58-.59Zm2.83.7a1.5 1.5 0 0 0-2.12 0l-.23.24 3.29 3.3.23-.24a1.5 1.5 0 0 0 0-2.12l-1.17-1.17Zm.23 4.24L16.5 8.2l-8.3 8.3 3.3 3.3 8.3-8.3Zm-9 9L7.5 17.2l-.5.5V21h3.3l.5-.5Z"></path>
    </symbol>
    
    <symbol id="clear">
        <path d="M5.5 16.5c1 3 7 7 11 7 2-4 2-8.5 2-8.5s-1-3.5-2-4-4.5.5-4.5.5-3 3.5-6.5 5z"></path>
        <path d="M15.5 11l3-6s.5-1 1.5-.5.5 1.5.5 1.5l-3 6M12 11.5l6.5 3.5M7.5 19c2-.5 4-2.5 4-2.5m0 5.5c2-1 3-3.5 3-3.5"></path>
    </symbol>
    
    <symbol id="add_section">
        <path d="M4 10h5V9H4v1zM11 10h6V9h-6v1zM24 10h-5V9h5v1zM6.5 14c-.83 0-1.5.67-1.5 1.5v3c0 .83.67 1.5 1.5 1.5h15c.83 0 1.5-.67 1.5-1.5v-3c0-.83-.67-1.5-1.5-1.5h-15zM6 15.5c0-.28.22-.5.5-.5h15c.28 0 .5.22.5.5v3a.5.5 0 0 1-.5.5h-15a.5.5 0 0 1-.5-.5v-3z"></path>
    </symbol>
    
    <symbol id="box">
        <path d="M2.5 1C1.67 1 1 1.67 1 2.5v12c0 .83.67 1.5 1.5 1.5h14c.83 0 1.5-.67 1.5-1.5v-12c0-.83-.67-1.5-1.5-1.5h-14ZM0 2.5A2.5 2.5 0 0 1 2.5 0h14A2.5 2.5 0 0 1 19 2.5v12a2.5 2.5 0 0 1-2.5 2.5h-14A2.5 2.5 0 0 1 0 14.5v-12Z"></path>
    </symbol>

    <symbol id="box_fullscreen">
        <path d="M8.5 6A2.5 2.5 0 0 0 6 8.5V11h1V8.5C7 7.67 7.67 7 8.5 7H11V6H8.5zM6 17v2.5A2.5 2.5 0 0 0 8.5 22H11v-1H8.5A1.5 1.5 0 0 1 7 19.5V17H6zM19.5 7H17V6h2.5A2.5 2.5 0 0 1 22 8.5V11h-1V8.5c0-.83-.67-1.5-1.5-1.5zM22 19.5V17h-1v2.5c0 .83-.67 1.5-1.5 1.5H17v1h2.5a2.5 2.5 0 0 0 2.5-2.5z"></path>
    </symbol>

    <symbol id="snapshot">
        <path fill-rule="evenodd" clip-rule="evenodd" d="M11.118 6a.5.5 0 0 0-.447.276L9.809 8H5.5A1.5 1.5 0 0 0 4 9.5v10A1.5 1.5 0 0 0 5.5 21h16a1.5 1.5 0 0 0 1.5-1.5v-10A1.5 1.5 0 0 0 21.5 8h-4.309l-.862-1.724A.5.5 0 0 0 15.882 6h-4.764zm-1.342-.17A1.5 1.5 0 0 1 11.118 5h4.764a1.5 1.5 0 0 1 1.342.83L17.809 7H21.5A2.5 2.5 0 0 1 24 9.5v10a2.5 2.5 0 0 1-2.5 2.5h-16A2.5 2.5 0 0 1 3 19.5v-10A2.5 2.5 0 0 1 5.5 7h3.691l.585-1.17z"></path>
        <path fill-rule="evenodd" clip-rule="evenodd" d="M13.5 18a3.5 3.5 0 1 0 0-7 3.5 3.5 0 0 0 0 7zm0 1a4.5 4.5 0 1 0 0-9 4.5 4.5 0 0 0 0 9z"></path>
    </symbol>

    <symbol id="search_quick">
        <path d="M15 11v4l1-1.5 2.33-3.5.67-1h-3V4l-1 1.5L12.67 9 12 10h3v1Zm2-7v4h2a1 1 0 0 1 .83 1.55l-4 6A1 1 0 0 1 14 15v-4h-2a1 1 0 0 1-.83-1.56l4-6A1 1 0 0 1 17 4ZM5 13.5a7.5 7.5 0 0 1 6-7.35v1.02A6.5 6.5 0 1 0 18.98 13h1a7.6 7.6 0 0 1-1.83 5.44l4.7 4.7-.7.71-4.71-4.7A7.5 7.5 0 0 1 5 13.5Z"></path>
    </symbol>

    <symbol id="box_open">
        <path stroke="currentColor" d="M1 8l8.5-6.5L18 8"></path>
    </symbol>

    <symbol id="box_maximize">
        <path d="M19.32 6H8.68A2.68 2.68 0 0 0 6 8.68V11h1V8.68C7 7.75 7.75 7 8.68 7h10.64c.93 0 1.68.75 1.68 1.68V11h1V8.68C22 7.2 20.8 6 19.32 6ZM7 19.32c0 .93.75 1.68 1.68 1.68h10.64c.93 0 1.68-.75 1.68-1.68V17h1v2.32C22 20.8 20.8 22 19.32 22H8.68A2.68 2.68 0 0 1 6 19.32V17h1v2.32Z"></path>
    </symbol>

    <symbol id="pie_chart">
        <path d="M0 0h28v28H0z"></path>
        <path d="M13.5 23.5a9 9 0 0 0 9-9h-9v-9a9 9 0 0 0 0 18zM22 6l-6.5 6.5m4-8l-4 4m8 0l-4 4"></path>
        <path d="M24.5 12.5a9 9 0 0 0-9-9v9h9z"></path>
    </symbol>
    
    <symbol id="layout_single">
        <path fill="currentColor" d="M2.5 1C1.67 1 1 1.67 1 2.5v12c0 .83.67 1.5 1.5 1.5h14c.83 0 1.5-.67 1.5-1.5v-12c0-.83-.67-1.5-1.5-1.5h-14ZM0 2.5A2.5 2.5 0 0 1 2.5 0h14A2.5 2.5 0 0 1 19 2.5v12a2.5 2.5 0 0 1-2.5 2.5h-14A2.5 2.5 0 0 1 0 14.5v-12Z"></path>
    </symbol>

    <symbol id="layout_double_vert">
        <path fill="currentColor" fill-rule="evenodd" d="M1 2.5C1 1.67 1.67 1 2.5 1H9v15H2.5A1.5 1.5 0 0 1 1 14.5v-12ZM10 16h6.5c.83 0 1.5-.67 1.5-1.5v-12c0-.83-.67-1.5-1.5-1.5H10v15ZM2.5 0A2.5 2.5 0 0 0 0 2.5v12A2.5 2.5 0 0 0 2.5 17h14a2.5 2.5 0 0 0 2.5-2.5v-12A2.5 2.5 0 0 0 16.5 0h-14Z"></path>
    </symbol>

    <symbol id="layout_double_horiz">
        <path fill="currentColor" fill-rule="evenodd" d="M1 2.5C1 1.67 1.67 1 2.5 1h14c.83 0 1.5.67 1.5 1.5V8H1V2.5ZM1 9v5.5c0 .83.67 1.5 1.5 1.5h14c.83 0 1.5-.67 1.5-1.5V9H1Zm1.5-9A2.5 2.5 0 0 0 0 2.5v12A2.5 2.5 0 0 0 2.5 17h14a2.5 2.5 0 0 0 2.5-2.5v-12A2.5 2.5 0 0 0 16.5 0h-14Z"></path>
    </symbol>

    <symbol id="menu_arrow_ew" >
        <g fill="currentColor" viewBox ="0 0 8 10" width='8px' height="10px"> 
            <path d="M.6 1.4l1.4-1.4 8 8-8 8-1.4-1.4 6.389-6.532-6.389-6.668z"></path>
        </g>
    </symbol>
    

    <!-- Symbol Template -->
    <symbol id="">
    </symbol>
</svg>

