<svg viewBox="0 0 280 106" xmlns="http://www.w3.org/2000/svg" color="currentColor">
  <defs></defs>
  <path fill-rule="evenodd" d="M 174.039 8.203 L 174.669 7.833 C 175.56 6.1 176.37 4.329 177.099 2.523 L 181.869 1.133 C 180.613 4.78 179.034 8.307 177.149 11.673 C 177.529 22.123 173.219 32.823 166.049 41.043 C 154.389 54.453 139.069 57.013 122.479 54.823 L 123.549 53.843 C 124.961 52.661 126.211 51.299 127.269 49.793 C 123.714 51.171 120.008 52.124 116.229 52.633 C 105.579 47.093 94.589 37.693 91.959 25.363 C 101.149 8.363 120.909 1.353 139.349 5.423 C 140.547 8.858 142.558 11.952 145.209 14.443 C 145.089 12.523 145.109 10.603 145.109 8.683 L 145.119 6.903 C 149.919 9.863 154.779 12.753 160.639 12.603 C 164.719 12.503 169.039 11.083 174.039 8.203 Z M 151.489 31.483 C 148.23 27.763 142.492 27.611 139.039 31.153 L 131.139 23.893 C 132.954 18.384 128.908 12.696 123.109 12.603 C 116.969 12.603 112.859 19.233 115.409 24.693 L 102.389 36.883 C 98.289 31.913 96.709 27.583 96.219 25.943 C 104.579 12.223 120.679 5.763 136.369 8.873 C 139.299 15.773 144.749 19.593 151.139 22.833 L 150.809 21.693 C 150.069 19.133 149.339 16.593 149.189 13.913 C 156.239 17.363 163.789 17.263 170.949 14.223 C 166.189 21.493 159.819 28.443 151.489 31.483 Z M 128.929 27.293 L 136.959 34.673 C 135.429 40.108 139.463 45.519 145.109 45.603 C 150.595 45.522 154.604 40.396 153.359 35.053 C 161.349 31.973 167.729 25.673 172.639 18.823 C 169.169 38.293 150.679 53.433 130.739 51.803 C 132.509 48.963 133.229 45.743 133.949 42.523 L 134.299 40.963 C 128.829 44.733 123.629 47.343 116.929 48.483 C 112.575 46.199 108.582 43.284 105.079 39.833 L 117.909 27.833 C 121.227 30.351 125.874 30.124 128.929 27.293 Z M 123.109 16.603 C 119.645 16.603 117.48 20.353 119.212 23.353 C 120.016 24.745 121.502 25.603 123.109 25.603 C 126.573 25.603 128.739 21.853 127.006 18.853 C 126.203 17.46 124.717 16.603 123.109 16.603 Z M 140.609 37.103 C 140.609 33.639 144.359 31.473 147.359 33.206 C 148.752 34.009 149.609 35.495 149.609 37.103 C 149.609 40.567 145.859 42.732 142.859 41 C 141.467 40.196 140.609 38.71 140.609 37.103 Z" fill="white"></path>

  <g id="svgGroup" stroke-linecap="round" fill-rule="evenodd" font-size="9pt" stroke="white" stroke-width="0.25mm" fill="white" style="stroke: rgb(0, 0, 0); stroke-width: 0.25mm; fill: rgb(255, 255, 255);" transform="matrix(0.276, 0, 0, 0.276, 4.297163, 75.813545)">
    <path d="M 252.8 74 L 242.9 74 L 226.5 24.4 L 234.8 21.5 L 248.2 63.8 L 260.4 25.7 L 270.1 25.7 L 282 63.8 L 295.3 21.5 L 303.3 24.4 L 286.8 74 L 276.9 74 L 264.9 35.3 L 252.8 74 Z M 142.6 74 L 133.6 74 L 133.6 0 L 142.6 0 L 142.6 30.3 Q 145.4 26.2 149.7 23.5 A 17.572 17.572 0 0 1 156.825 20.991 A 22.595 22.595 0 0 1 159.8 20.8 A 23.225 23.225 0 0 1 164.865 21.318 Q 169.959 22.456 172.95 26.1 Q 177.075 31.126 177.288 39.209 A 33.764 33.764 0 0 1 177.3 40.1 L 177.3 74 L 168.3 74 L 168.3 41.1 Q 168.3 35.5 165.7 32.1 A 8.42 8.42 0 0 0 159.542 28.753 A 11.979 11.979 0 0 0 158.4 28.7 A 13.23 13.23 0 0 0 151.687 30.566 A 17.586 17.586 0 0 0 149.65 31.95 Q 145.5 35.2 142.6 39.6 L 142.6 74 Z M 459.7 74 L 450.7 74 L 450.7 0 L 459.7 0 L 459.7 30.3 Q 462.5 26.2 466.8 23.5 A 17.572 17.572 0 0 1 473.925 20.991 A 22.595 22.595 0 0 1 476.9 20.8 A 23.225 23.225 0 0 1 481.965 21.318 Q 487.059 22.456 490.05 26.1 Q 494.175 31.126 494.388 39.209 A 33.764 33.764 0 0 1 494.4 40.1 L 494.4 74 L 485.4 74 L 485.4 41.1 Q 485.4 35.5 482.8 32.1 A 8.42 8.42 0 0 0 476.642 28.753 A 11.979 11.979 0 0 0 475.5 28.7 A 13.23 13.23 0 0 0 468.787 30.566 A 17.586 17.586 0 0 0 466.75 31.95 Q 462.6 35.2 459.7 39.6 L 459.7 74 Z M 758.4 74 L 749.4 74 L 749.4 0 L 758.4 0 L 758.4 30.3 Q 761.2 26.2 765.5 23.5 A 17.572 17.572 0 0 1 772.625 20.991 A 22.595 22.595 0 0 1 775.6 20.8 A 23.225 23.225 0 0 1 780.665 21.318 Q 785.759 22.456 788.75 26.1 Q 792.875 31.126 793.088 39.209 A 33.764 33.764 0 0 1 793.1 40.1 L 793.1 74 L 784.1 74 L 784.1 41.1 Q 784.1 35.5 781.5 32.1 A 8.42 8.42 0 0 0 775.342 28.753 A 11.979 11.979 0 0 0 774.2 28.7 A 13.23 13.23 0 0 0 767.487 30.566 A 17.586 17.586 0 0 0 765.45 31.95 Q 761.3 35.2 758.4 39.6 L 758.4 74 Z M 630.2 95.2 L 632.2 87.7 A 9.908 9.908 0 0 0 633.365 88.274 Q 634.188 88.619 635.2 88.9 A 13.514 13.514 0 0 0 637.479 89.317 A 17.358 17.358 0 0 0 639.2 89.4 Q 643.4 89.4 646.7 86.7 A 12.003 12.003 0 0 0 648.633 84.639 Q 650.381 82.328 652.041 78.475 A 58.58 58.58 0 0 0 653 76.1 L 655.3 70.1 L 650.5 70.1 L 630.2 24.4 L 638.2 20.8 L 657.6 64.1 L 672.7 21.2 L 681 24.4 L 661.9 76.6 A 71.728 71.728 0 0 1 659.847 81.686 Q 658.745 84.126 657.578 86.114 A 30.86 30.86 0 0 1 655.6 89.1 A 24.268 24.268 0 0 1 652.722 92.311 Q 650.808 94.079 648.705 95.118 A 14.737 14.737 0 0 1 648.1 95.4 Q 644 97.2 639 97.2 Q 636 97.2 633.75 96.6 Q 631.5 96 630.2 95.2 Z M 77.5 92.8 L 80.8 85 A 20.562 20.562 0 0 0 84.617 87.373 A 24.737 24.737 0 0 0 86.4 88.15 Q 89.159 89.228 92.959 89.376 A 31.788 31.788 0 0 0 94.2 89.4 A 21.701 21.701 0 0 0 98.721 88.957 Q 101.622 88.339 103.822 86.859 A 12.576 12.576 0 0 0 105.35 85.65 A 11.352 11.352 0 0 0 108.257 81.157 Q 109.4 78.056 109.4 73.7 L 109.4 67.3 Q 107.4 69.7 103.65 71.85 Q 99.9 74 94.7 74 Q 88.8 74 83.5 70.95 A 22.236 22.236 0 0 1 76.208 64.112 A 27.437 27.437 0 0 1 74.9 62 A 25.181 25.181 0 0 1 72.187 54.376 A 35.033 35.033 0 0 1 71.6 47.8 A 32.06 32.06 0 0 1 72.517 39.992 A 26.682 26.682 0 0 1 74.85 33.9 A 25.706 25.706 0 0 1 80.914 26.278 A 24.448 24.448 0 0 1 83.6 24.3 Q 89.1 20.8 95.7 20.8 A 22.366 22.366 0 0 1 100.52 21.301 A 18.715 18.715 0 0 1 103.7 22.3 A 25.705 25.705 0 0 1 107.528 24.268 A 20.998 20.998 0 0 1 109.9 26 L 109.9 22 L 118.1 22 L 118.1 72.8 Q 118.1 81.4 115.1 86.8 Q 112.1 92.2 106.75 94.7 A 25.811 25.811 0 0 1 100.146 96.721 A 35.243 35.243 0 0 1 94.2 97.2 Q 89.6 97.2 85.25 96.1 A 27.232 27.232 0 0 1 79.95 94.183 A 23.518 23.518 0 0 1 77.5 92.8 Z M 394.6 92.8 L 397.9 85 A 20.562 20.562 0 0 0 401.717 87.373 A 24.737 24.737 0 0 0 403.5 88.15 Q 406.259 89.228 410.059 89.376 A 31.788 31.788 0 0 0 411.3 89.4 A 21.701 21.701 0 0 0 415.821 88.957 Q 418.722 88.339 420.922 86.859 A 12.576 12.576 0 0 0 422.45 85.65 A 11.352 11.352 0 0 0 425.357 81.157 Q 426.5 78.056 426.5 73.7 L 426.5 67.3 Q 424.5 69.7 420.75 71.85 Q 417 74 411.8 74 Q 405.9 74 400.6 70.95 A 22.236 22.236 0 0 1 393.308 64.112 A 27.437 27.437 0 0 1 392 62 A 25.181 25.181 0 0 1 389.287 54.376 A 35.033 35.033 0 0 1 388.7 47.8 A 32.06 32.06 0 0 1 389.617 39.992 A 26.682 26.682 0 0 1 391.95 33.9 A 25.706 25.706 0 0 1 398.014 26.278 A 24.448 24.448 0 0 1 400.7 24.3 Q 406.2 20.8 412.8 20.8 A 22.366 22.366 0 0 1 417.62 21.301 A 18.715 18.715 0 0 1 420.8 22.3 A 25.705 25.705 0 0 1 424.628 24.268 A 20.998 20.998 0 0 1 427 26 L 427 22 L 435.2 22 L 435.2 72.8 Q 435.2 81.4 432.2 86.8 Q 429.2 92.2 423.85 94.7 A 25.811 25.811 0 0 1 417.246 96.721 A 35.243 35.243 0 0 1 411.3 97.2 Q 406.7 97.2 402.35 96.1 A 27.232 27.232 0 0 1 397.05 94.183 A 23.518 23.518 0 0 1 394.6 92.8 Z M 735.9 6.4 L 733 14.4 Q 729.9 12.9 726.65 12 Q 723.857 11.227 720.215 11.118 A 40.705 40.705 0 0 0 719 11.1 A 21.173 21.173 0 0 0 711.095 12.555 A 19.981 19.981 0 0 0 707.55 14.4 A 21.167 21.167 0 0 0 701.184 20.981 A 26.978 26.978 0 0 0 699.6 23.9 Q 696.7 30.1 696.7 38.9 Q 696.7 47.3 699.55 53.6 A 25.677 25.677 0 0 0 703.136 59.428 A 21.423 21.423 0 0 0 707.45 63.4 A 19.703 19.703 0 0 0 718.595 66.897 A 23.894 23.894 0 0 0 719 66.9 A 33.715 33.715 0 0 0 722.971 66.678 Q 725.447 66.384 727.5 65.7 Q 731.1 64.5 734.5 62.6 L 737.4 70.5 A 37.561 37.561 0 0 1 732.905 72.544 A 47.894 47.894 0 0 1 728.95 73.85 A 33.592 33.592 0 0 1 723.985 74.841 Q 721.503 75.155 718.706 75.194 A 57.414 57.414 0 0 1 717.9 75.2 A 32.384 32.384 0 0 1 708.575 73.899 A 27.961 27.961 0 0 1 701.8 70.85 A 28.6 28.6 0 0 1 691.923 60.405 A 34.916 34.916 0 0 1 690.9 58.45 A 37.611 37.611 0 0 1 687.801 48.733 Q 687.025 44.467 687.001 39.614 A 62.816 62.816 0 0 1 687 39.3 Q 687 28.6 690.95 20.35 Q 694.9 12.1 702.15 7.45 A 29.371 29.371 0 0 1 714.83 3.039 A 37.292 37.292 0 0 1 719.1 2.8 A 45.639 45.639 0 0 1 724.158 3.068 A 35.2 35.2 0 0 1 728.2 3.75 A 38.224 38.224 0 0 1 735.675 6.294 A 35.605 35.605 0 0 1 735.9 6.4 Z M 948.4 69.8 L 952.2 62.3 A 18.557 18.557 0 0 0 955.344 64.426 Q 956.898 65.27 958.75 65.95 A 24.073 24.073 0 0 0 966.361 67.387 A 27.464 27.464 0 0 0 967.2 67.4 Q 972.592 67.4 975.435 65.685 A 7.738 7.738 0 0 0 975.65 65.55 Q 978.5 63.7 978.5 60.8 A 7.123 7.123 0 0 0 978.186 58.653 A 6.212 6.212 0 0 0 977.45 57.1 A 6.384 6.384 0 0 0 976.521 56.006 Q 975.507 55.034 973.834 54.081 A 22.3 22.3 0 0 0 973.6 53.95 A 28.462 28.462 0 0 0 971.606 52.957 Q 969.49 51.995 966.501 50.946 A 103.602 103.602 0 0 0 965.5 50.6 A 46.616 46.616 0 0 1 961.102 48.857 Q 958.988 47.883 957.312 46.795 A 19.335 19.335 0 0 1 954.55 44.65 A 11.324 11.324 0 0 1 951.256 38.654 A 16.794 16.794 0 0 1 950.9 35.1 Q 950.9 29.1 956.15 24.95 Q 960.554 21.469 967.808 20.908 A 37.527 37.527 0 0 1 970.7 20.8 A 40.794 40.794 0 0 1 975.146 21.031 Q 977.454 21.284 979.47 21.815 A 25.234 25.234 0 0 1 979.6 21.85 Q 983.5 22.9 986.6 24.5 L 984.1 31.9 Q 981.4 30.3 977.95 29.3 A 25.024 25.024 0 0 0 973.467 28.453 A 31.837 31.837 0 0 0 970.3 28.3 A 20.632 20.632 0 0 0 967.363 28.495 Q 964.277 28.94 962.4 30.4 A 9.322 9.322 0 0 0 961.042 31.673 Q 960.34 32.492 960.005 33.365 A 4.529 4.529 0 0 0 959.7 35 A 4.921 4.921 0 0 0 961.195 38.552 A 7.082 7.082 0 0 0 961.8 39.1 Q 963.865 40.772 969.798 42.734 A 84.459 84.459 0 0 0 970 42.8 A 67.753 67.753 0 0 1 975.062 44.698 Q 980.989 47.217 983.8 50.1 Q 987.7 54.1 987.7 60.1 Q 987.7 66.848 982.449 70.855 A 16.618 16.618 0 0 1 982.05 71.15 Q 977.31 74.547 969.862 75.095 A 40.423 40.423 0 0 1 966.9 75.2 Q 961 75.2 956.25 73.7 A 30.883 30.883 0 0 1 952.41 72.215 Q 950.429 71.284 948.848 70.136 A 18.229 18.229 0 0 1 948.4 69.8 Z M 354.9 51.7 L 318.5 51.7 A 24.088 24.088 0 0 0 319.639 56.725 Q 320.975 60.538 323.6 63.1 Q 327.8 67.2 334.7 67.2 Q 339.2 67.2 342.8 66.25 Q 346.4 65.3 349.7 63.8 L 351.8 71.5 A 40.77 40.77 0 0 1 347.465 73.126 A 51.863 51.863 0 0 1 343.7 74.15 A 38.914 38.914 0 0 1 338.608 74.969 A 52.025 52.025 0 0 1 333.6 75.2 A 28.318 28.318 0 0 1 325.854 74.195 A 21.108 21.108 0 0 1 315.85 68.05 A 23.521 23.521 0 0 1 310.645 58.51 Q 309.3 53.845 309.3 48 A 35.359 35.359 0 0 1 310.133 40.178 A 28.84 28.84 0 0 1 312.25 34.05 A 24.642 24.642 0 0 1 317.266 26.968 A 22.887 22.887 0 0 1 320.5 24.35 A 21.048 21.048 0 0 1 330.759 20.878 A 26.205 26.205 0 0 1 332.8 20.8 Q 340.3 20.8 345.25 24.05 Q 350.2 27.3 352.7 32.8 A 28.185 28.185 0 0 1 355.126 42.664 A 33.434 33.434 0 0 1 355.2 44.9 A 75.204 75.204 0 0 1 354.909 51.597 A 69.426 69.426 0 0 1 354.9 51.7 Z M 194.8 56.1 L 194.8 31.7 L 185.8 31.7 L 185.8 23.9 L 195 23.9 L 196.9 7.5 L 203.8 7.5 L 203.8 23.9 L 218.2 23.9 L 218.2 31.7 L 203.8 31.7 L 203.8 56.8 A 21.559 21.559 0 0 0 203.968 59.596 Q 204.441 63.202 206.25 64.9 Q 208.7 67.2 212.1 67.2 Q 214.6 67.2 216.85 66.4 Q 219.1 65.6 221 64.5 L 223.5 71.7 A 18.546 18.546 0 0 1 221.882 72.556 Q 221.08 72.935 220.134 73.308 A 43.365 43.365 0 0 1 218.1 74.05 Q 214.7 75.2 211 75.2 Q 203.5 75.2 199.15 70.25 A 16.116 16.116 0 0 1 195.922 64.348 Q 195.159 61.917 194.915 58.98 A 34.777 34.777 0 0 1 194.8 56.1 Z M 511.9 56.1 L 511.9 31.7 L 502.9 31.7 L 502.9 23.9 L 512.1 23.9 L 514 7.5 L 520.9 7.5 L 520.9 23.9 L 535.3 23.9 L 535.3 31.7 L 520.9 31.7 L 520.9 56.8 A 21.559 21.559 0 0 0 521.068 59.596 Q 521.541 63.202 523.35 64.9 Q 525.8 67.2 529.2 67.2 Q 531.7 67.2 533.95 66.4 Q 536.2 65.6 538.1 64.5 L 540.6 71.7 A 18.546 18.546 0 0 1 538.982 72.556 Q 538.18 72.935 537.234 73.308 A 43.365 43.365 0 0 1 535.2 74.05 Q 531.8 75.2 528.1 75.2 Q 520.6 75.2 516.25 70.25 A 16.116 16.116 0 0 1 513.022 64.348 Q 512.259 61.917 512.015 58.98 A 34.777 34.777 0 0 1 511.9 56.1 Z M 914.2 56.1 L 914.2 31.7 L 905.2 31.7 L 905.2 23.9 L 914.4 23.9 L 916.3 7.5 L 923.2 7.5 L 923.2 23.9 L 937.6 23.9 L 937.6 31.7 L 923.2 31.7 L 923.2 56.8 A 21.559 21.559 0 0 0 923.368 59.596 Q 923.841 63.202 925.65 64.9 Q 928.1 67.2 931.5 67.2 Q 934 67.2 936.25 66.4 Q 938.5 65.6 940.4 64.5 L 942.9 71.7 A 18.546 18.546 0 0 1 941.282 72.556 Q 940.48 72.935 939.534 73.308 A 43.365 43.365 0 0 1 937.5 74.05 Q 934.1 75.2 930.4 75.2 Q 922.9 75.2 918.55 70.25 A 16.116 16.116 0 0 1 915.322 64.348 Q 914.559 61.917 914.315 58.98 A 34.777 34.777 0 0 1 914.2 56.1 Z M 41.6 74 L 0 74 L 0 4 L 9.5 4 L 9.5 65.5 L 41.6 65.5 L 41.6 74 Z M 590.1 74 L 580.6 74 L 580.6 4.2 Q 584.7 3.7 589.65 3.45 A 200.806 200.806 0 0 1 598.58 3.204 A 221.966 221.966 0 0 1 599.9 3.2 Q 607.47 3.2 613.072 5.282 A 26.011 26.011 0 0 1 614.7 5.95 A 24.606 24.606 0 0 1 619.782 8.979 A 19.374 19.374 0 0 1 624 13.5 Q 627.2 18.3 627.2 24.5 A 25.258 25.258 0 0 1 626.492 30.622 A 19.268 19.268 0 0 1 623.5 37.2 A 22.312 22.312 0 0 1 615.949 43.83 A 28.065 28.065 0 0 1 613.2 45.15 A 34.774 34.774 0 0 1 605.111 47.374 A 47.194 47.194 0 0 1 597.9 47.9 Q 593.7 47.9 590.1 47.6 L 590.1 74 Z M 844.2 26.2 L 844.2 22 L 852.4 22 L 852.4 61.4 A 12.15 12.15 0 0 0 852.502 63.036 Q 852.834 65.47 854.25 66.35 Q 856.1 67.5 858.3 67.5 L 856.4 74.5 A 17.722 17.722 0 0 1 852.135 74.028 Q 846.498 72.628 844.903 67.08 A 13.59 13.59 0 0 1 844.8 66.7 A 21.307 21.307 0 0 1 841.69 70.126 A 28.498 28.498 0 0 1 838.55 72.55 Q 834.6 75.2 828.5 75.2 Q 822 75.2 816.7 71.9 A 22.947 22.947 0 0 1 809.287 64.373 A 27.923 27.923 0 0 1 808.25 62.55 A 27.228 27.228 0 0 1 805.62 54.608 A 36.644 36.644 0 0 1 805.1 48.3 A 33.142 33.142 0 0 1 806.097 40.031 A 27.968 27.968 0 0 1 808.25 34.3 Q 811.4 28.1 816.95 24.45 A 22.297 22.297 0 0 1 828.145 20.844 A 27.388 27.388 0 0 1 829.7 20.8 A 22.584 22.584 0 0 1 834.494 21.29 A 18.703 18.703 0 0 1 837.85 22.35 A 26.002 26.002 0 0 1 842.137 24.644 A 22.103 22.103 0 0 1 844.2 26.2 Z M 879.3 74 L 870.3 74 L 870.3 22 L 879 22 L 879 33.3 Q 880.3 30 882.5 27.15 Q 884.7 24.3 888 22.55 A 14.817 14.817 0 0 1 892.68 21.026 A 19.459 19.459 0 0 1 895.7 20.8 Q 897.2 20.8 898.7 20.95 A 18.972 18.972 0 0 1 899.755 21.084 Q 900.255 21.162 900.682 21.262 A 8.817 8.817 0 0 1 901.2 21.4 L 898.5 30.7 A 9.763 9.763 0 0 0 896.355 30.088 Q 895.259 29.9 894 29.9 A 12.958 12.958 0 0 0 887.37 31.746 A 15.609 15.609 0 0 0 886.95 32 Q 883.622 34.086 881.478 38.442 A 22.927 22.927 0 0 0 881.45 38.5 Q 879.687 42.107 879.37 47.328 A 39.09 39.09 0 0 0 879.3 49.7 L 879.3 74 Z M 59.1 74 L 50.1 74 L 50.1 22 L 59.1 22 L 59.1 74 Z M 376.2 74 L 367.2 74 L 367.2 22 L 376.2 22 L 376.2 74 Z M 843.4 60.7 L 843.4 32.8 Q 840.7 30.9 837.45 29.75 Q 834.2 28.6 830.6 28.6 A 15.924 15.924 0 0 0 825.629 29.354 A 14.024 14.024 0 0 0 822.15 31.05 A 16.301 16.301 0 0 0 817.131 36.474 A 19.962 19.962 0 0 0 816.4 37.85 A 20.663 20.663 0 0 0 814.647 43.527 A 27.678 27.678 0 0 0 814.3 48 Q 814.3 53.6 816.4 57.95 A 17.602 17.602 0 0 0 819.506 62.496 A 15.697 15.697 0 0 0 822.2 64.75 Q 825.9 67.2 830.5 67.2 Q 834.3 67.2 837.7 65.35 Q 841.1 63.5 843.4 60.7 Z M 109.1 60 L 109.1 32.8 Q 106.934 31.225 103.897 29.941 A 36.018 36.018 0 0 0 103.8 29.9 A 16.249 16.249 0 0 0 99.996 28.849 A 22.135 22.135 0 0 0 96.6 28.6 Q 92.5 28.6 88.9 30.8 Q 85.3 33 83.05 37.15 Q 80.8 41.3 80.8 47.3 A 24.32 24.32 0 0 0 81.278 52.236 A 18.311 18.311 0 0 0 83.05 57.2 A 18.576 18.576 0 0 0 85.961 61.275 A 15.802 15.802 0 0 0 88.9 63.7 Q 92.5 66 96.7 66 A 15.276 15.276 0 0 0 101.278 65.332 A 13.606 13.606 0 0 0 103.9 64.2 A 20.855 20.855 0 0 0 106.881 62.184 A 16.309 16.309 0 0 0 109.1 60 Z M 426.2 60 L 426.2 32.8 Q 424.034 31.225 420.997 29.941 A 36.018 36.018 0 0 0 420.9 29.9 A 16.249 16.249 0 0 0 417.096 28.849 A 22.135 22.135 0 0 0 413.7 28.6 Q 409.6 28.6 406 30.8 Q 402.4 33 400.15 37.15 Q 397.9 41.3 397.9 47.3 A 24.32 24.32 0 0 0 398.378 52.236 A 18.311 18.311 0 0 0 400.15 57.2 A 18.576 18.576 0 0 0 403.061 61.275 A 15.802 15.802 0 0 0 406 63.7 Q 409.6 66 413.8 66 A 15.276 15.276 0 0 0 418.378 65.332 A 13.606 13.606 0 0 0 421 64.2 A 20.855 20.855 0 0 0 423.981 62.184 A 16.309 16.309 0 0 0 426.2 60 Z M 590.1 11.6 L 590.1 39.5 Q 591.2 39.637 592.631 39.751 A 96.255 96.255 0 0 0 594 39.85 Q 596.3 40 599.1 40 A 31.831 31.831 0 0 0 604.48 39.574 Q 607.359 39.08 609.663 38.011 A 15.221 15.221 0 0 0 612.9 36 A 12.896 12.896 0 0 0 617.755 26.558 A 17.32 17.32 0 0 0 617.8 25.3 A 14.452 14.452 0 0 0 617.039 20.507 A 12.136 12.136 0 0 0 613.1 15 A 15.462 15.462 0 0 0 608.019 12.336 Q 605.793 11.626 603.1 11.36 A 34.58 34.58 0 0 0 599.7 11.2 A 131.125 131.125 0 0 0 596.442 11.239 A 109.939 109.939 0 0 0 594.6 11.3 A 91.274 91.274 0 0 0 591.717 11.464 A 75.041 75.041 0 0 0 590.1 11.6 Z M 318.4 44.4 L 346.9 44.4 A 24.355 24.355 0 0 0 346.496 39.815 Q 346 37.231 344.896 35.207 A 12.422 12.422 0 0 0 343.1 32.7 A 12.488 12.488 0 0 0 336.139 28.924 A 18.395 18.395 0 0 0 332.6 28.6 A 13.58 13.58 0 0 0 327.488 29.535 A 12.524 12.524 0 0 0 323 32.65 Q 319.2 36.7 318.4 44.4 Z M 50.237 11.288 A 5.973 5.973 0 0 0 54.6 13.1 A 8.175 8.175 0 0 0 56.096 12.969 A 5.647 5.647 0 0 0 59.2 11.35 Q 60.9 9.6 60.9 6.8 A 7.26 7.26 0 0 0 60.9 6.719 A 6.06 6.06 0 0 0 59.05 2.35 A 7.395 7.395 0 0 0 58.992 2.293 A 6.059 6.059 0 0 0 54.6 0.5 A 8.264 8.264 0 0 0 52.944 0.658 A 5.661 5.661 0 0 0 50 2.2 A 5.588 5.588 0 0 0 48.529 4.832 A 7.987 7.987 0 0 0 48.3 6.8 A 5.992 5.992 0 0 0 48.792 9.219 A 6.643 6.643 0 0 0 50.15 11.2 A 7.466 7.466 0 0 0 50.237 11.288 Z M 367.337 11.288 A 5.973 5.973 0 0 0 371.7 13.1 A 8.175 8.175 0 0 0 373.196 12.969 A 5.647 5.647 0 0 0 376.3 11.35 Q 378 9.6 378 6.8 A 7.26 7.26 0 0 0 378 6.719 A 6.06 6.06 0 0 0 376.15 2.35 A 7.395 7.395 0 0 0 376.092 2.293 A 6.059 6.059 0 0 0 371.7 0.5 A 8.264 8.264 0 0 0 370.044 0.658 A 5.661 5.661 0 0 0 367.1 2.2 A 5.588 5.588 0 0 0 365.629 4.832 A 7.987 7.987 0 0 0 365.4 6.8 A 5.992 5.992 0 0 0 365.892 9.219 A 6.643 6.643 0 0 0 367.25 11.2 A 7.466 7.466 0 0 0 367.337 11.288 Z" vector-effect="non-scaling-stroke"></path>
  </g>
</svg>